<?xml version="1.0" encoding="utf-8"?>
<!-- Generator: Adobe Illustrator 16.0.0, SVG Export Plug-In . SVG Version: 6.00 Build 0)  -->
<!DOCTYPE svg PUBLIC "-//W3C//DTD SVG 1.1//EN" "http://www.w3.org/Graphics/SVG/1.1/DTD/svg11.dtd">
<svg version="1.1" id="Layer_1" xmlns="http://www.w3.org/2000/svg" xmlns:xlink="http://www.w3.org/1999/xlink" x="0px" y="0px"
	 width="1929px" height="263px" viewBox="0 0 1929 263" enable-background="new 0 0 1929 263" xml:space="preserve">
<g id="_x23_eeeeeeff">
	<path fill="#EEEEEE" d="M1411.25,153.91C1583.86,102.78,1756.439,51.56,1929,0.3V263h-885.3
		C1166.22,226.65,1288.76,190.35,1411.25,153.91z"/>
</g>
<g id="_x23_9a1e21ff">
	<path fill="#9A1E21" d="M0.125,91.658c142.734,30.445,285.499,60.725,428.243,91.108c45.766,9.816,91.602,19.313,137.327,29.326
		c-2.547,0.437-5.064,1.035-7.632,1.326c-185.983,12.788-371.956,25.629-557.938,38.439V91.658z"/>
</g>
<g id="_x23_b52326ff">
	<path fill="#B52326" d="M569.84,210.55c280.47-18.909,560.95-37.69,841.41-56.64C1288.76,190.35,1166.22,226.65,1043.7,263H0
		v-14.13c184.01-12.37,368.01-24.771,552.02-37.12c2.54-0.28,5.03-0.859,7.551-1.28C562.96,211.09,566.42,210.87,569.84,210.55z"/>
</g>
</svg>
