<?xml version="1.0" encoding="utf-8"?>
<!-- Generator: Adobe Illustrator 16.0.0, SVG Export Plug-In . SVG Version: 6.00 Build 0)  -->
<!DOCTYPE svg PUBLIC "-//W3C//DTD SVG 1.1//EN" "http://www.w3.org/Graphics/SVG/1.1/DTD/svg11.dtd">
<svg version="1.1" id="Layer_1" xmlns="http://www.w3.org/2000/svg" xmlns:xlink="http://www.w3.org/1999/xlink" x="0px" y="0px"
	 width="1925px" height="414px" viewBox="0 0 1925 414" enable-background="new 0 0 1925 414" xml:space="preserve">
<g id="_x23_eeeeeeff">
	<path fill="#EEEEEE" d="M0.3,0.27C350.87,27.85,701.44,55.44,1052.01,83.02c56.36,4.41,112.721,8.98,169.101,13.08
		c-22.95,3.95-46.061,6.95-69.08,10.52c-236.74,35.28-473.5,70.44-710.24,105.8C294.85,234.189,147.94,256.15,1.01,278
		C0.77,185.43,0.49,92.85,0.3,0.27z"/>
</g>
<g id="_x23_b52326ff">
	<path fill="#B52326" d="M1221.11,96.1c234.29,18.26,468.579,36.59,702.87,54.91c0.42,26.82,0.409,53.64,1.02,80.45v12.55
		c-10.33-0.1-20.65-0.31-30.95-0.81c-26.689-0.14-53.35-1.3-80.03-1.47c-15.689-0.801-31.399-0.641-47.09-1.021
		c-21.619-0.91-43.27-0.729-64.89-1.53c-24.36-0.199-48.7-1.32-73.06-1.39c-16.311-0.89-32.65-0.69-48.98-1.08
		c-12.98-0.68-25.99-0.62-38.99-0.86c-22.66-0.869-45.34-0.709-68-1.67c-26-0.1-51.979-1.289-77.97-1.43
		c-16.68-0.811-33.39-0.63-50.07-1.109c-11.31-0.66-22.64-0.48-33.96-0.74c-12.01-0.041-24.01-0.9-36.02-0.851
		c-7.5,0.13-15.051-0.92-22.471,0.5c-2.479-0.55-4.97-1.08-7.5-1.12c-218.68-4.689-437.359-9.369-656.05-14.06
		c-49.06-0.92-98.12-2.37-147.18-2.95c236.74-35.36,473.5-70.52,710.24-105.8C1175.05,103.05,1198.16,100.05,1221.11,96.1z"/>
</g>
<g id="_x23_9a1e21ff">
	<path fill="#9A1E21" d="M1247.27,229.425c7.478-1.42,15.088-0.37,22.646-0.5c12.104-0.05,24.197,0.81,36.301,0.851
		c11.408,0.26,22.827,0.08,34.225,0.74c16.811,0.479,33.651,0.299,50.461,1.109c26.193,0.141,52.376,1.33,78.579,1.43
		c22.837,0.961,45.693,0.801,68.53,1.67c13.102,0.24,26.213,0.181,39.295,0.86c16.458,0.39,32.925,0.19,49.363,1.08
		c24.549,0.069,49.079,1.19,73.63,1.39c21.788,0.801,43.608,0.62,65.396,1.53c15.813,0.38,31.646,0.22,47.458,1.021
		c26.889,0.17,53.757,1.33,80.655,1.47c10.38,0.5,20.78,0.71,31.191,0.81v168.45C1699.11,350.625,1473.14,290.215,1247.27,229.425z"
		/>
</g>
</svg>
