<?xml version="1.0" encoding="UTF-8" ?>
<!DOCTYPE svg PUBLIC "-//W3C//DTD SVG 1.1//EN" "http://www.w3.org/Graphics/SVG/1.1/DTD/svg11.dtd">
<svg width="776pt" height="363pt" viewBox="0 0 776 363" version="1.1" xmlns="http://www.w3.org/2000/svg">
<g id="#eeeeeeff">
<path fill="#eeeeee" opacity="1.00" d=" M 283.00 118.06 C 387.40 79.02 491.80 39.99 596.20 0.94 C 589.11 62.53 581.99 124.10 574.87 185.68 C 474.47 164.24 374.04 142.88 273.65 121.36 C 276.85 120.50 279.90 119.20 283.00 118.06 Z" />
</g>
<g id="#b52326ff">
<path fill="#b52326" opacity="1.00" d=" M 0.00 63.12 C 91.27 82.30 182.41 102.07 273.65 121.36 C 374.04 142.88 474.47 164.24 574.87 185.68 C 595.28 190.14 615.80 194.23 636.16 198.91 C 653.75 214.60 670.90 230.83 688.32 246.73 C 717.55 273.66 746.80 300.55 776.00 327.50 L 776.00 362.80 C 539.34 334.83 302.67 306.86 66.01 278.89 C 48.03 220.17 30.10 161.44 12.14 102.72 C 8.02 89.84 4.59 76.71 0.00 63.99 L 0.00 63.12 Z" />
</g>
</svg>
