<?xml version="1.0" encoding="utf-8"?>
<!-- Generator: Adobe Illustrator 16.0.0, SVG Export Plug-In . SVG Version: 6.00 Build 0)  -->
<!DOCTYPE svg PUBLIC "-//W3C//DTD SVG 1.1//EN" "http://www.w3.org/Graphics/SVG/1.1/DTD/svg11.dtd">
<svg version="1.1" id="Layer_1" xmlns="http://www.w3.org/2000/svg" xmlns:xlink="http://www.w3.org/1999/xlink" x="0px" y="0px"
	 width="808px" height="412px" viewBox="0 0 808 412" enable-background="new 0 0 808 412" xml:space="preserve">
<g id="_x23_9a1e21ff">
	<path fill="#9A1E21" d="M289.279,241.233C462.191,162.85,635.055,84.364,808,6.04v178.104
		c-48.814,7.034-97.721,13.412-146.576,20.163c-133.196,18.196-266.392,36.392-399.577,54.578
		c-4.935,0.707-9.859,1.514-14.847,1.615C261.021,253.931,275.196,247.672,289.279,241.233z"/>
</g>
<g id="_x23_b52326ff">
	<path fill="#B52326" d="M666.144,197.937c47.319-6.689,94.689-13.01,141.97-19.979v79.759c-126.32,32.58-252.69,64.961-379,97.57
		c-142.76-21.59-285.58-42.74-428.35-64.301c84.13-11.969,168.31-23.539,252.46-35.359c3.85-0.58,7.77-0.879,11.52-2.01
		c4.83-0.1,9.6-0.9,14.38-1.6C408.123,233.998,537.133,215.967,666.144,197.937z"/>
</g>
<g id="_x23_eeeeeeff">
	<path fill="#EEEEEE" d="M429,354.32c126.31-32.61,252.68-64.99,379-97.57v154.96C681.67,392.561,555.34,373.391,429,354.32z"/>
</g>
</svg>
