<?xml version="1.0" encoding="utf-8"?>
<!-- Generator: Adobe Illustrator 16.0.0, SVG Export Plug-In . SVG Version: 6.00 Build 0)  -->
<!DOCTYPE svg PUBLIC "-//W3C//DTD SVG 1.1//EN" "http://www.w3.org/Graphics/SVG/1.1/DTD/svg11.dtd">
<svg version="1.1" id="Layer_1" xmlns="http://www.w3.org/2000/svg" xmlns:xlink="http://www.w3.org/1999/xlink" x="0px" y="0px"
	 width="1933.7px" height="604.85px" viewBox="-209.69 239.5 1933.7 604.85" enable-background="new -209.69 239.5 1933.7 604.85"
	 xml:space="preserve">
<g id="_x23_eeeeeeff">
	<path fill="#EEEEEE" d="M-211.44,428.46c350.57,27.58,701.14,55.17,1051.71,82.75c56.36,4.41,112.72,8.98,169.1,13.08
		c-22.95,3.95-46.06,6.95-69.08,10.52C703.55,570.09,467.74,610.14,231,645.5c-146.94,21.77-294.8,38.84-441.73,60.69
		C-210.97,613.62-211.25,521.04-211.44,428.46z"/>
</g>
<g id="_x23_9a1e21ff">
	<path fill="#9A1E21" d="M1561.98,668.25"/>
	<path fill="#9A1E21" d="M1039.38,663.02c227.24,60.62,457.61,120.78,684.88,181.32l1.5-180l-301.25-1.42L1039.38,663.02z"/>
</g>
<path fill="#EEEEEE" d="M1214.25,368.75c100.39,21.52,204.1,45.56,304.5,67c7.12-61.58,13.91-128.72,21-190.31L1214.25,368.75z"/>
<path fill="#B52326" d="M1725.75,574.67c-29.2-26.95-60.44-54.01-89.67-80.94c-17.42-15.9-34.57-32.13-52.16-47.82
	c-20.36-4.68-40.88-8.77-61.29-13.23c-100.4-21.44-200.83-42.8-301.22-64.32c-91.24-19.29-182.38-39.06-273.65-58.24v0.87
	c4.59,12.72,8.02,25.85,12.14,38.73c17.38,56.81,34.72,113.63,52.12,170.44c-21.25,3.8-42.63,6.85-63.93,10.41
	c-238.18,38.29-476.37,76.45-714.55,114.83c49.36,0.63,98.72,2.2,148.07,3.2c220.02,5.09,440.02,10.17,660.03,15.26
	c2.55,0.04,5.05,0.62,7.55,1.22c7.46-1.54,15.06-0.4,22.61-0.54c12.08-0.05,24.16,0.88,36.24,0.92c11.39,0.28,22.79,0.09,34.17,0.8
	c16.78,0.52,33.59,0.32,50.37,1.2c26.15,0.15,52.29,1.45,78.44,1.55c22.8,1.04,45.61,0.87,68.41,1.81
	c13.08,0.26,26.17,0.2,39.23,0.93c16.43,0.42,32.87,0.21,49.28,1.17c24.51,0.08,48.99,1.29,73.5,1.51
	c21.75,0.87,43.53,0.67,65.28,1.66c15.79,0.41,31.59,0.24,47.38,1.11c26.84,0.19,53.67,1.44,80.52,1.6
	c10.36,0.54,20.75,0.77,31.14,0.88v-13.62V574.67z"/>
</svg>
