<?xml version="1.0" encoding="utf-8"?>
<!-- Generator: Adobe Illustrator 16.0.0, SVG Export Plug-In . SVG Version: 6.00 Build 0)  -->
<!DOCTYPE svg PUBLIC "-//W3C//DTD SVG 1.1//EN" "http://www.w3.org/Graphics/SVG/1.1/DTD/svg11.dtd">
<svg version="1.1" id="Layer_1" xmlns="http://www.w3.org/2000/svg" xmlns:xlink="http://www.w3.org/1999/xlink" x="0px" y="0px"
	 width="1933.7px" height="595.41px" viewBox="-209.69 247.93 1933.7 595.41" enable-background="new -209.69 247.93 1933.7 595.41"
	 xml:space="preserve">
<g id="_x23_eeeeeeff">
	<path fill="#EEEEEE" d="M-209.69,432.28c350.57,27.58,701.14,55.17,1051.71,82.75c56.36,4.41,112.72,8.98,169.1,13.08
		c-22.95,3.95-46.06,6.95-69.08,10.52c-236.74,35.28-473.5,70.44-710.24,105.8C84.86,666.2-62.05,688.16-208.98,710.01
		C-209.22,617.44-209.5,524.86-209.69,432.28z"/>
</g>
<g id="_x23_b52326ff">
	<path fill="#B52326" d="M1017.84,528.11c235.71,18.26,471.42,36.59,707.14,54.91c0.42,26.82,0.41,53.64,1.03,80.45v12.55
		c-10.39-0.1-20.78-0.31-31.14-0.81c-26.85-0.14-53.67-1.3-80.52-1.47c-15.78-0.8-31.59-0.64-47.38-1.02
		c-21.75-0.91-43.53-0.73-65.28-1.53c-24.51-0.2-49-1.32-73.5-1.39c-16.41-0.89-32.85-0.69-49.28-1.08
		c-13.06-0.68-26.15-0.62-39.23-0.86c-22.8-0.87-45.62-0.71-68.41-1.67c-26.16-0.1-52.29-1.29-78.44-1.43
		c-16.78-0.81-33.59-0.63-50.37-1.11c-11.38-0.66-22.78-0.48-34.17-0.74c-12.08-0.04-24.16-0.9-36.24-0.85
		c-7.55,0.13-15.14-0.92-22.61,0.5c-2.5-0.55-5-1.08-7.55-1.12c-220.01-4.69-440.01-9.37-660.03-14.06
		c-49.36-0.92-98.72-2.37-148.07-2.95c238.18-35.36,476.37-70.52,714.55-105.8C971.5,535.06,994.75,532.06,1017.84,528.11z"/>
</g>
<g id="_x23_9a1e21ff">
	<path fill="#9A1E21" d="M1042.15,661.94c7.52-1.42,15.18-0.37,22.78-0.5c12.18-0.05,24.34,0.81,36.52,0.85
		c11.48,0.26,22.97,0.08,34.43,0.74c16.91,0.48,33.86,0.3,50.77,1.11c26.35,0.14,52.69,1.33,79.06,1.43
		c22.98,0.96,45.97,0.8,68.95,1.67c13.18,0.24,26.37,0.18,39.53,0.86c16.56,0.39,33.13,0.19,49.66,1.08
		c24.7,0.07,49.38,1.19,74.08,1.39c21.92,0.8,43.87,0.62,65.79,1.53c15.91,0.38,31.84,0.22,47.75,1.02
		c27.05,0.17,54.08,1.33,81.14,1.46c10.44,0.5,20.91,0.71,31.38,0.81v167.98C1496.74,782.8,1269.39,722.56,1042.15,661.94z"/>
</g>
<g id="_x23_eeeeeeff_1_">
	<path fill="#EEEEEE" d="M1231.01,365.05c104.4-39.04,208.8-78.07,313.2-117.12c-7.09,61.59-14.21,123.16-21.33,184.74
		c-100.4-21.44-200.83-42.8-301.22-64.32C1224.86,367.49,1227.91,366.19,1231.01,365.05z"/>
</g>
<g id="_x23_b52326ff_1_">
	<path fill="#B52326" d="M948.01,313.11c91.27,19.18,182.41,38.95,273.65,58.24c100.39,21.52,200.82,42.88,301.22,64.32
		c20.41,4.46,40.93,8.55,61.29,13.23c17.59,15.69,34.74,31.92,52.16,47.82c29.23,26.93,58.48,53.82,87.68,80.77v35.3
		c-236.66-27.97-473.33-55.94-709.99-83.91c-17.98-58.72-35.91-117.45-53.87-176.17c-4.12-12.88-7.55-26.01-12.14-38.73V313.11z"/>
</g>
</svg>
