<?xml version="1.0" encoding="utf-8"?>
<!-- Generator: Adobe Illustrator 16.0.0, SVG Export Plug-In . SVG Version: 6.00 Build 0)  -->
<!DOCTYPE svg PUBLIC "-//W3C//DTD SVG 1.1//EN" "http://www.w3.org/Graphics/SVG/1.1/DTD/svg11.dtd">
<svg version="1.1" id="Layer_1" xmlns="http://www.w3.org/2000/svg" xmlns:xlink="http://www.w3.org/1999/xlink" x="0px" y="0px"
	 width="1920.1px" height="145.7px" viewBox="0 0 1920.1 145.7" enable-background="new 0 0 1920.1 145.7" xml:space="preserve">
<rect x="-2.201" fill="#FFFFFF" width="1922.298" height="145.7"/>
<path fill="#991E21" d="M1918.209,0.1L207.437,31.9c7.813,0.9,15.525,4.2,23.338,5c34.055,3.9,68.21,7.7,102.266,11.6
	c31.15,3.5,62.2,7.1,93.352,10.5c17.328,1.9,34.757,3.7,52.185,5.6c18.13,1.3,36.159,1.1,54.288,0.4c23.137-1,46.274-1.5,69.413-2.2
	c19.633-0.6,39.264-1.3,58.895-1.9c21.837-0.7,43.672-1.3,65.408-2.1c19.631-0.7,39.262-1.2,58.896-1.9
	c21.434-0.8,42.969-1.3,64.404-2c19.934-0.7,39.965-1.3,59.896-2c22.336-0.7,44.673-1.3,66.908-2c19.332-0.6,38.663-1.4,57.896-1.9
	c23.538-0.6,46.975-1.5,70.414-2.2c18.129-0.5,36.259-1.2,54.488-1.8c22.637-0.8,45.271-1.5,67.91-2.1
	c19.531-0.5,38.962-1.3,58.395-1.9c21.635-0.6,43.271-1.4,64.905-2.1c19.833-0.6,39.665-1.3,59.396-1.9
	c21.034-0.6,41.969-1.4,62.903-2c20.533-0.6,40.965-1.3,61.399-2c22.636-0.7,45.272-1.3,67.909-2.1
	c19.332-0.6,38.664-1.3,57.895-1.9c21.436-0.7,42.97-1.4,64.405-2.1c19.632-0.6,39.263-1.3,58.896-1.9
	c22.336-0.7,44.672-1.5,66.908-2c17.528-0.4,34.957-1.6,52.485-1.3c4.906,0.1,9.915-1,14.923-1c1.805,0,3.205-0.8,4.406-2.1
	c0-6,0-12,0-18C1921.515-0.3,1919.813,0.1,1918.209,0.1z"/>
<path fill="#282828" d="M1244.314,145.799c224.896,0,449.895,0,674.793,0.101c3.409,0,4.109-0.7,4.109-4.101
	c-0.197-35-0.1-70-0.1-105c-2.507-2.9-5.916-2.4-8.925-1.9c-8.321,1.4-16.644,0.9-24.964,1.5c-18.951,1.3-37.901,2.2-56.953,3.1
	c-19.45,1-38.903,2.2-58.457,3c-16.644,0.7-33.287,1.9-49.932,2.4c-7.019,0.2-14.037,0.4-20.956,1
	c-21.255,1.8-42.614,2.4-63.868,3.6c-18.952,1.1-37.903,2-56.955,3c-19.852,1-39.604,2-59.457,3c-18.65,1-37.301,2-55.95,2.9
	c-19.652,1-39.304,2-58.956,3c-18.852,1-37.601,2.1-56.452,3c-19.652,1-39.303,2-58.957,3c-19.15,1-38.302,2-57.453,3
	c-19.352,1-38.603,2.1-57.954,3c-16.646,0.7-33.288,1.7-49.935,2.398c-7.02,0.302-14.037,0.4-20.955,0.9
	c-21.757,1.801-43.615,2.5-65.374,3.6c-16.343,0.9-32.586,1.802-48.93,2.5c-6.619,0.302-13.335,0.4-19.954,0.9
	c-16.943,1.399-33.989,1.899-50.936,2.801c-8.622,0.398-17.346,0.799-25.969,1.398c-21.657,1.5-43.313,2.301-64.871,3.5
	c-16.345,0.898-32.586,1.7-48.932,2.5c-8.922,0.398-18.048,0.301-26.969,1.602c-1.503,0.601-3.111,0.799-4.614,0.799
	c-15.641-0.1-31.384,0.602-47.023,1.602c-21.758,1.398-43.616,2.2-65.375,3.602c-18.449,1.199-36.999,2.101-55.447,3
	c-19.953,1-40.006,2.101-59.96,3.101c-18.852,1-37.6,2-56.451,2.899c-19.45,1-39.001,2-58.456,3.101
	c-18.948,1-38,1.899-56.951,2.899c-19.351,1-38.603,2.101-57.955,3c-19.352,0.898-38.603,2-57.954,3c-19.452,1-39.003,2-58.456,3
	c-18.851,1-37.6,2-56.451,3c-19.651,1-39.304,2.101-58.958,3c-16.443,0.699-32.987,2-49.431,2.398
	c-4.311,0.102-9.124-0.398-12.834,3c0,0.801,0,9.301,0,10.102"/>
<path fill="#B42326" d="M1868.528,20.4c-20.332,0.3-40.565,1.3-60.898,1.9c-21.136,0.7-42.269,1.4-63.401,2
	c-19.934,0.6-39.966,1.3-59.898,2c-21.635,0.7-43.27,1.3-64.905,2c-20.133,0.7-40.266,1.4-60.396,2
	c-22.64,0.7-45.274,1.4-67.912,2.1c-18.931,0.5-37.96,1.3-56.894,1.9c-21.934,0.7-43.969,1.3-65.905,2
	c-19.131,0.6-38.263,1.3-57.394,2c-22.138,0.7-44.271,1.4-66.406,2c-20.637,0.6-41.269,1.4-61.902,2
	c-21.934,0.7-43.97,1.2-65.906,2.2c-9.015,0.4-17.93,0.4-26.943,0.8c-21.835,0.9-43.57,1.5-65.406,2.1
	c-19.331,0.6-38.563,1.4-57.895,2c-22.135,0.7-44.271,1.3-66.406,2c-19.934,0.6-39.965,1.3-59.897,2
	c-21.336,0.7-42.569,1.3-63.905,2c-20.132,0.7-40.264,1.3-60.396,2c-21.134,0.7-42.269,1.3-63.403,2
	c-20.934,0.7-41.968,1.3-62.901,2c-21.835,0.7-43.57,1.4-65.406,2c-15.126,0.4-30.249,1.6-45.474,1.3c1.002,0.2,1.903,0.6,2.904,0.7
	c33.954,3.8,67.91,7.5,101.864,11.399L755.224,97.4c7.212-0.399,14.524-0.7,21.735-1.101C812.116,94.4,847.173,92.5,882.331,90.6
	c22.136-1.2,44.27-2.1,66.408-3.301c37.66-1.899,75.222-3.899,112.883-5.899c20.133-1,40.264-2.101,60.497-3.101
	c37.461-2,74.922-3.899,112.382-5.899c20.333-1.1,40.665-2.1,60.897-3.1c37.162-1.9,74.223-3.9,111.382-5.8
	c20.633-1.1,41.267-2.1,61.899-3.2c36.96-1.9,73.92-3.9,110.88-5.8c20.833-1.1,41.667-2.1,62.4-3.2
	c36.661-1.9,73.221-3.9,109.879-5.8c20.833-1.1,41.667-2.1,62.4-3.2c36.16-1.9,72.219-3.8,108.376-5.8c0-6,0-12,0-18
	C1904.788,19.2,1886.657,20.1,1868.528,20.4z"/>
<g>
	<path fill="#EDEDED" d="M433.953,58c-16.517-1.8-33.035-3.8-49.552-5.6c-15.816-1.7-31.733-3.7-47.549-5.4
		c-16.517-1.8-33.034-3.8-49.551-5.6c-13.214-1.4-26.428-2.9-39.642-4.6l-52.354-6.1c-12.913-1.1-25.727-2.9-38.64-4.2
		c-24.926-2.6-49.852-5.6-74.778-8.4c-25.126-2.8-50.152-5.6-75.278-8.6C3.806,9.2,0.603,8.2-2.1,10.4c0,42,0,84,0,126
		c32.334-1.7,64.567-3.3,96.901-5c40.842-2.101,81.585-4.2,122.327-6.3c48.951-2.5,97.902-5.1,146.853-7.7
		c40.743-2.101,81.584-4.2,122.327-6.3c48.25-2.5,96.601-5.1,144.851-7.6c39.141-2.103,78.282-4.103,117.322-6.201
		c1.399,0,2.803,0,4.205,0L433.953,58z"/>
</g>
</svg>
