<?xml version="1.0" encoding="utf-8"?>
<!-- Generator: Adobe Illustrator 16.0.0, SVG Export Plug-In . SVG Version: 6.00 Build 0)  -->
<!DOCTYPE svg PUBLIC "-//W3C//DTD SVG 1.1//EN" "http://www.w3.org/Graphics/SVG/1.1/DTD/svg11.dtd">
<svg version="1.1" id="Layer_1" xmlns="http://www.w3.org/2000/svg" xmlns:xlink="http://www.w3.org/1999/xlink" x="0px" y="0px"
	 width="1920px" height="159px" viewBox="0 0 1920 159" style="enable-background:new 0 0 1920 159;" xml:space="preserve">
<style type="text/css">
<![CDATA[
	.st0{fill-rule:evenodd;clip-rule:evenodd;fill:#B42326;}
	.st1{fill-rule:evenodd;clip-rule:evenodd;fill:#EDEDED;}
	.st2{fill-rule:evenodd;clip-rule:evenodd;fill:#282828;}
	.st3{fill-rule:evenodd;clip-rule:evenodd;fill:#991E21;}
]]>
</style>
<g>
	<path class="st2" d="M-5.3,118.7C-5.3,81-8.8,43.3-9,5.7C-9,2.2-2.4-3,1-3c224.5,0.1,453.8,0,678.3,0c412.2,0,826.5,1.5,1238.7,1.3
		c5.1,0,4.1,3.5,3,8.7c-3.6,4.4-9,4-13.8,4.9c-26.1,4.9-52.3,9.8-78.4,14.7c-39.7,7.4-79.4,14.8-119.1,22.3
		c-1.8,0.3-3.6,0.5-5.5,0.4c-11.2-0.8-22.2,0.8-33.3,1.5c-1.5,0.1-3,0.4-4.5,0.4c-12.8-0.5-25.6,0.8-38.4,1.3
		c-24.6,0.9-49.2,2.1-73.8,3c-15.3,0.6-30.6,1.3-45.9,1.9c-24.8,1.1-49.5,2.1-74.3,3.1c-15.1,0.6-30.2,1.3-45.4,1.9
		c-24.9,1-49.9,2.1-74.8,3.1c-14.8,0.6-29.6,1.3-44.4,1.9c-25.3,1.1-50.5,2.2-75.8,3.1c-14.8,0.5-29.6,1.1-44.4,1.9
		c-18.9,1-37.9,1.1-56.8,2.7c-8.5,0.7-17,0.6-25.4,0.9c-12.6,0.4-25.3,0.9-37.9,1.5c-18.9,0.9-37.9,1.1-56.8,2.6
		c-8.5,0.7-17,0.6-25.4,0.9c-12.6,0.4-25.3,1-37.9,1.5c-25.1,0.9-50.2,2.1-75.3,3c-15.3,0.6-30.6,1.1-45.9,2
		c-18.6,1.1-37.2,1.1-55.8,2.6c-8.3,0.7-16.6,0.6-24.9,0.9c-12.5,0.4-25,0.9-37.4,1.5c-19.1,0.9-38.2,1.1-57.3,2.6
		c-8.6,0.7-17.3,0.5-25.9,0.9c-12,0.5-24,1-35.9,1.5c-19.4,0.9-38.9,1.1-58.3,2.7c-8.3,0.7-16.6,0.6-24.9,0.9
		c-12.5,0.4-25,0.9-37.4,1.5c-19.6,0.9-39.2,1.1-58.8,2.6c-8.3,0.7-16.6,0.6-24.9,0.9c-12.5,0.4-25,0.9-37.4,1.5
		c-19.1,0.9-38.2,1.1-57.3,2.6c-8.5,0.7-17,0.6-25.4,0.9c-12.6,0.4-25.3,0.9-37.9,1.5c-18.6,0.9-37.2,1.1-55.8,2.6
		c-8.6,0.7-17.3,0.7-25.9,0.9c-13.1,0.4-26.3,0.9-39.4,1.5c-18.6,0.9-37.2,1-55.8,2.6C7.9,120.3-2.4,121.9-5.3,118.7z"/>
	<path class="st1" d="M1704.9,47.2c17.5-3.2,35-6.2,52.5-9.5c53.1-9.9,106.2-19.9,159.2-29.8c1.5-0.3,2.9-0.6,4.4-0.9
		c0,49.5,0,99,0.1,148.5c0,3.8-0.8,4.6-4.6,4.6c-269.8-0.1-539.7-0.1-809.5-0.1c0.3-3.5,3.4-3.4,5.6-3.8
		c39.7-7.3,79.4-14.8,119.1-22.3c38.4-7.2,76.8-14.4,115.2-21.6c23.2-4.4,46.4-8.8,69.6-12.9c6.4-1.1,12.9-1.2,19-3.7
		c50.6-9.4,101.2-18.9,151.7-28.5c30-5.7,60-11.5,90.1-16.7C1686.4,48.9,1695.7,48.1,1704.9,47.2z"/>
	<path class="st3" d="M1432.7,97.7c-49.8,9.4-99.6,18.8-149.4,28.1c-59.3,11.1-118.6,22.2-177.9,33.3c-0.6,0.1-1.2,0.6-1.7,0.8
		c-367.2,0-740.9,0-1108,0.1c-3.7,0-4.9-0.8-4.6-4.6C-8.6,150-6.3,145-2.3,139c1.7-2.1,4-2.2,6.4-2.1c14.2,0.1,28.3-0.9,42.4-1.2
		c23.8-0.6,47.6-1.3,71.4-2c21.8-0.6,43.6-1.3,65.4-2c22.5-0.7,44.9-1.3,67.4-2c23-0.7,45.9-1.3,68.9-2c21.8-0.6,43.6-1.3,65.4-2
		c22.5-0.7,44.9-1.3,67.4-2c23-0.7,45.9-1.2,68.9-2c22-0.8,43.9-1.3,65.9-2c23.3-0.7,46.6-1.3,69.9-2c22.1-0.7,44.2-1.3,66.4-2
		c23.3-0.7,46.6-1.3,69.9-2c21.8-0.7,43.6-1.3,65.4-2c23.5-0.7,46.9-1.3,70.4-2c21.6-0.7,43.2-1.3,64.9-2c22.8-0.7,45.6-1.3,68.4-2
		c21.8-0.7,43.6-1.2,65.4-2c23.5-0.8,46.9-1.3,70.4-2c22-0.7,43.9-1.2,65.9-2c23.1-0.8,46.2-1.3,69.4-2c22-0.7,43.9-1.4,65.9-2
		c9.3-0.3,18.6-0.9,27.9-0.7C1428.9,94.9,1431.7,94.4,1432.7,97.7z"/>
	<path class="st0" d="M1436,97.7c-9.3-1.4-18.5-0.8-27.8-0.3c-1.3,0.1-2.6,0.5-3.9,0.5c-18.3-0.6-36.6,0.9-54.9,1.2
		c-24.3,0.4-48.5,1.3-72.8,2c-21.9,0.7-43.9,1.3-65.8,2c-23.3,0.7-46.5,1.3-69.8,2c-22.3,0.7-44.5,1.3-66.8,2
		c-22.3,0.7-44.5,1.3-66.8,2c-22.1,0.7-44.2,1.3-66.3,2c-22.9,0.7-45.9,1.3-68.8,2c-22.4,0.7-44.9,1.3-67.3,2
		c-22.4,0.7-44.9,1.3-67.3,2c-22.9,0.7-45.9,1.3-68.8,2c-22.3,0.7-44.5,1.4-66.8,2c-23.1,0.7-46.2,1.3-69.3,2
		c-21.8,0.7-43.5,1.3-65.3,2c-23.6,0.7-47.2,1.3-70.8,2c-20.9,0.6-41.9,1.3-62.8,2c-23.6,0.7-47.2,1.3-70.8,2
		c-21.8,0.6-43.5,1.3-65.3,2c-22.6,0.7-45.2,1.2-67.8,2.1c-11.5,0.5-23,0.2-34.4,0.8c-22.3,1.2-44.5,1.4-66.8,2.2
		c-9.1,0.3-24.9,0.5-34.1,0.7c0-7,2-14.3,2-21.3c45.1-1.9,94.8-3.5,139.9-5.4c18.8-0.8,37.6-1.5,56.4-2.2
		c43.3-1.7,86.5-3.5,129.8-5.2c22-0.9,43.9-1.9,65.9-2.8c42.3-1.7,84.5-3.4,126.8-5.2c22.5-0.9,44.9-1.9,67.4-2.9
		c41.6-1.7,83.2-3.4,124.8-5.1c22.1-0.9,44.2-1.9,66.4-2.8c41.9-1.7,83.9-3.4,125.8-5.2c21.8-0.9,43.6-1.9,65.4-2.8
		c42.1-1.7,84.2-3.4,126.3-5.2c22.8-0.9,45.6-2,68.4-2.9c41.3-1.7,82.5-3.4,123.8-5.1c22.8-0.9,45.6-1.9,68.4-2.9
		c41.3-1.7,82.5-3.4,123.8-5.1c21.8-0.9,43.6-1.9,65.4-2.8c42.1-1.7,84.2-3.4,126.3-5.2c12.6-0.5,25.3-1.1,37.9-1.6
		c-16.9,3.3-33.9,6.6-50.8,9.8c-65,12.2-130,24.4-195,36.6C1451.4,95,1443.7,96.4,1436,97.7z"/>
</g>
</svg>
